<?xml version="1.0" standalone="no"?>
<!DOCTYPE svg PUBLIC "-//W3C//DTD SVG 20010904//EN"
 "http://www.w3.org/TR/2001/REC-SVG-20010904/DTD/svg10.dtd">
<svg version="1.0" xmlns="http://www.w3.org/2000/svg"
 width="373.000000pt" height="373.000000pt" viewBox="0 0 373.000000 373.000000"
 preserveAspectRatio="xMidYMid meet">
<metadata>
Created by potrace 1.14, written by Peter Selinger 2001-2017
</metadata>
<g transform="translate(0.000000,373.000000) scale(0.100000,-0.100000)"
fill="#000000" stroke="none">
<path d="M1535 3720 c-27 -4 -70 -11 -95 -14 -133 -20 -349 -90 -481 -156
-198 -100 -401 -262 -553 -440 -116 -136 -236 -353 -299 -541 -42 -123 -48
-149 -77 -314 -5 -27 -8 -140 -6 -250 3 -207 18 -316 67 -474 86 -282 256
-554 472 -757 40 -38 87 -90 105 -115 17 -25 78 -93 136 -151 262 -263 566
-419 946 -483 113 -20 357 -22 480 -6 695 95 1259 599 1429 1276 11 44 22 98
26 120 3 23 8 52 11 65 3 14 7 102 9 195 5 243 -27 432 -109 645 -85 219 -218
422 -386 590 -47 47 -112 119 -144 160 -162 205 -362 368 -591 482 -139 70
-338 135 -470 153 -27 4 -59 10 -70 12 -39 8 -351 11 -400 3z m375 -106 c36
-4 67 -8 70 -9 3 0 23 -4 45 -8 59 -11 215 -56 250 -71 17 -8 40 -17 53 -21
78 -23 314 -164 392 -234 l35 -31 -30 12 c-16 6 -34 15 -40 19 -20 14 -268 89
-343 104 -142 28 -206 33 -372 30 -428 -8 -825 -170 -1133 -462 -448 -425
-629 -1058 -476 -1668 11 -43 27 -95 35 -114 23 -54 8 -48 -30 12 -119 186
-209 439 -234 662 -9 78 -9 336 0 400 52 375 234 720 513 976 246 225 605 383
920 405 50 4 91 8 93 9 5 4 188 -4 252 -11z"/>
</g>
</svg>
