<?xml version="1.0" standalone="no"?>
<!DOCTYPE svg PUBLIC "-//W3C//DTD SVG 20010904//EN"
 "http://www.w3.org/TR/2001/REC-SVG-20010904/DTD/svg10.dtd">
<svg version="1.0" xmlns="http://www.w3.org/2000/svg"
 width="611.000000pt" height="611.000000pt" viewBox="0 0 611.000000 611.000000"
 preserveAspectRatio="xMidYMid meet">
<metadata>
Created by potrace 1.14, written by Peter Selinger 2001-2017
</metadata>
<g transform="translate(0.000000,611.000000) scale(0.100000,-0.100000)"
fill="#000000" stroke="none">
<path d="M2680 5528 c-19 -5 -76 -10 -127 -11 -103 -2 -133 -16 -167 -79 -17
-30 -25 -35 -58 -36 -22 -1 -48 -7 -59 -12 -10 -6 -19 -8 -19 -5 0 20 -129
-92 -130 -112 0 -7 -4 -13 -10 -13 -5 0 -10 -6 -10 -14 0 -8 -23 -31 -51 -51
-49 -35 -111 -118 -114 -153 -1 -9 -9 -38 -18 -64 -16 -46 -25 -82 -31 -125
-2 -12 -15 -50 -29 -85 -25 -62 -38 -98 -39 -108 0 -3 -4 -12 -8 -21 -5 -9
-12 -38 -15 -65 -11 -88 -15 -106 -31 -135 -8 -16 -14 -30 -14 -31 1 -2 -1
-10 -4 -18 -10 -26 -24 -134 -22 -167 1 -18 -2 -33 -6 -33 -5 0 -7 -4 -6 -9 2
-5 -5 -16 -15 -23 -29 -22 -24 -112 8 -148 23 -26 15 -64 -15 -65 -3 0 -14 -7
-25 -15 -36 -27 -28 -120 10 -120 19 0 19 -28 1 -71 -11 -29 -11 -44 0 -99 8
-36 19 -78 26 -95 7 -16 13 -32 13 -35 1 -16 80 -170 87 -170 5 0 6 -4 3 -10
-7 -11 107 -129 127 -132 51 -6 75 -4 92 8 13 9 25 10 38 3 10 -5 18 -6 18 -1
0 5 10 9 22 8 16 -1 25 -13 39 -53 10 -31 14 -55 8 -58 -5 -4 -9 -15 -9 -26 0
-11 -7 -19 -17 -20 -11 0 -13 -3 -5 -6 6 -2 12 -14 12 -24 0 -11 -4 -17 -10
-14 -5 3 -10 -1 -10 -9 0 -9 -3 -16 -6 -16 -10 0 -32 26 -37 46 -2 10 -4 2 -4
-18 0 -21 4 -35 9 -32 13 8 28 -5 22 -21 -4 -8 -11 -12 -16 -9 -6 4 -8 -2 -3
-17 7 -24 7 -24 -21 3 -24 24 -26 29 -13 44 13 16 12 16 -8 5 -24 -12 -21 -37
6 -58 14 -10 13 -13 -8 -30 -22 -18 -22 -20 -7 -36 10 -9 14 -22 11 -27 -13
-20 4 -60 25 -60 11 0 20 -4 20 -9 0 -17 20 -64 26 -59 2 3 -1 17 -7 31 -15
34 -5 64 15 45 11 -10 11 -16 3 -27 -10 -11 -8 -13 13 -6 25 8 25 8 6 -14 -11
-11 -14 -21 -8 -21 7 0 12 5 12 12 0 9 3 9 12 0 16 -16 6 -24 -82 -61 -41 -18
-84 -36 -95 -41 -18 -8 -133 -42 -145 -43 -3 0 -25 -6 -49 -14 -24 -7 -47 -11
-51 -8 -5 3 -10 1 -12 -4 -1 -6 -25 -13 -53 -16 -27 -3 -61 -8 -75 -10 -14 -3
-61 -7 -106 -10 -45 -3 -92 -8 -105 -10 -13 -3 -39 -8 -58 -11 -19 -3 -46 -11
-60 -16 -14 -6 -35 -13 -46 -15 -10 -2 -22 -7 -25 -11 -4 -7 -34 -22 -50 -27
-3 0 -33 -14 -67 -29 l-63 -29 0 -1188 0 -1189 2040 0 2040 0 0 142 c0 78 -4
155 -10 172 -59 187 -104 333 -106 341 -1 9 -31 77 -55 130 -6 11 -11 31 -13
45 -2 14 -6 36 -9 50 -4 14 -9 48 -12 75 -6 48 -24 124 -60 245 -36 123 -57
196 -63 210 -7 21 -16 51 -26 95 -15 65 -50 165 -57 165 -4 0 -11 10 -15 22
-8 25 -56 73 -119 119 -22 16 -65 57 -95 91 -84 95 -127 137 -134 131 -3 -4
-6 -1 -6 4 0 12 -82 66 -145 96 -81 38 -200 87 -212 87 -7 0 -13 4 -13 9 0 7
-36 22 -62 25 -4 1 -13 7 -20 14 -6 6 -16 12 -20 12 -4 0 -68 29 -142 64 -75
36 -146 68 -158 72 -13 3 -32 13 -43 20 -11 8 -28 14 -38 14 -10 0 -27 5 -37
10 -17 9 -17 13 -5 37 12 22 12 30 -1 55 -8 15 -18 28 -23 28 -4 0 -6 12 -3
28 2 19 -3 33 -17 46 -12 11 -21 27 -21 37 0 10 -8 24 -19 31 -10 7 -21 30
-24 50 -4 33 -1 39 46 79 28 24 76 68 106 97 30 28 61 52 69 52 9 0 12 3 9 7
-8 8 12 33 26 33 7 0 7 -4 -1 -12 -15 -15 -16 -32 -2 -23 6 3 10 -1 10 -11 0
-12 -6 -15 -24 -12 -17 4 -23 1 -19 -9 3 -7 13 -12 21 -11 9 2 17 -3 18 -9 1
-7 2 -18 3 -23 1 -7 8 -7 22 1 17 9 23 7 35 -9 12 -18 18 -19 46 -9 24 9 32 9
35 0 6 -17 43 6 43 26 0 11 -5 10 -20 -4 -21 -19 -24 -13 -10 20 5 11 9 15 9
8 1 -6 8 -10 16 -9 18 3 32 16 17 16 -7 0 -12 4 -12 10 0 5 7 6 17 3 10 -4 14
-2 9 5 -3 6 -2 13 4 17 5 3 10 1 10 -4 0 -6 4 -11 10 -11 6 0 6 9 0 25 -7 17
-6 25 1 25 6 0 9 7 6 14 -4 10 -1 13 9 9 17 -6 18 -15 2 -32 -11 -10 -9 -11 5
-5 13 5 17 13 13 28 -3 12 2 28 12 39 16 18 16 20 -4 36 -17 13 -20 22 -12 35
8 13 5 22 -10 36 -11 10 -23 16 -27 12 -4 -4 -5 5 -2 19 6 25 -12 57 -25 44
-15 -15 -49 -13 -55 3 -4 9 -9 19 -12 22 -4 3 -12 17 -18 32 -9 20 -9 30 2 45
13 17 14 17 20 1 5 -13 12 -15 22 -9 9 5 24 6 34 4 11 -3 19 -1 19 5 0 5 17 9
38 8 20 -1 42 1 47 5 6 3 28 12 50 19 64 21 110 61 120 104 1 6 7 24 13 39 7
15 11 31 10 35 -1 4 1 14 5 22 7 20 47 237 49 273 1 15 5 27 8 27 3 0 4 30 3
66 -2 68 -16 97 -53 109 -15 5 -16 22 -15 153 2 170 -6 217 -38 228 -12 5 -25
7 -29 6 -6 -1 -19 33 -34 91 -1 4 -3 9 -4 12 -1 3 -3 9 -4 14 0 5 -4 13 -8 17
-5 4 -8 16 -8 26 0 10 -4 18 -10 18 -5 0 -9 3 -9 8 1 4 0 10 -1 15 -4 11 -7
26 -9 36 0 5 -16 25 -33 44 -31 32 -39 43 -70 99 -30 52 -95 135 -149 189 -33
33 -59 62 -59 66 0 10 -102 103 -113 103 -5 0 -25 16 -46 35 -20 19 -47 45
-61 56 -29 25 -140 82 -140 73 0 -4 -6 -2 -12 4 -7 5 -28 13 -46 17 -18 4 -45
17 -61 31 -47 40 -128 75 -183 80 -29 2 -78 11 -108 19 -61 17 -89 17 -140 3z
m-802 -1491 c20 -57 17 -65 -28 -64 -22 1 -40 1 -41 1 0 1 -2 20 -5 43 -5 38
-4 41 14 36 11 -2 23 0 26 6 12 19 22 12 34 -22z m-111 -28 c-1 -16 -7 -28
-12 -27 -5 2 -8 11 -7 22 3 12 0 16 -8 11 -9 -6 -9 -2 0 14 15 29 30 17 27
-20z m1949 -779 c10 -44 10 -57 0 -97 -11 -47 -62 -60 -97 -25 -15 16 -14 21
7 69 12 28 20 54 16 57 -3 3 -1 6 5 6 6 0 14 17 18 37 l7 37 18 -24 c10 -14
22 -41 26 -60z m74 26 c0 -3 -4 -8 -10 -11 -5 -3 -10 -1 -10 4 0 6 5 11 10 11
6 0 10 -2 10 -4z m29 -70 c9 -11 8 -15 -5 -20 -22 -8 -26 -8 -19 3 3 6 -3 14
-12 20 -16 9 -16 10 3 11 12 0 27 -6 33 -14z m15 -65 c13 -14 14 -20 4 -28 -8
-6 -21 -7 -33 -2 l-20 8 20 1 c19 1 19 1 3 14 -10 7 -18 16 -18 20 0 13 28 5
44 -13z m-1644 -67 c0 -5 8 -19 18 -30 9 -11 31 -38 49 -61 l32 -41 -24 -22
c-34 -32 -85 -22 -103 20 -17 38 -21 95 -9 143 9 34 11 36 23 20 7 -10 14 -23
14 -29z m1413 26 c-3 -11 -9 -20 -14 -20 -10 0 -12 24 -2 33 13 13 21 7 16
-13z m147 10 c0 -5 -4 -10 -10 -10 -5 0 -10 5 -10 10 0 6 5 10 10 10 6 0 10
-4 10 -10z m-120 -22 c0 -17 -18 -44 -24 -37 -8 7 5 49 15 49 5 0 9 -6 9 -12z
m60 -30 c0 -12 -3 -18 -7 -14 -11 10 -12 36 -2 36 5 0 9 -10 9 -22z m-38 -24
c-8 -14 -9 -13 -9 10 0 18 3 24 9 18 7 -7 7 -16 0 -28z m83 -21 c-35 -26 -49
-30 -75 -22 -24 7 -23 7 6 8 18 1 42 10 55 20 13 11 26 17 29 14 3 -2 -4 -11
-15 -20z m-135 -37 c0 -3 -4 -8 -10 -11 -5 -3 -10 -1 -10 4 0 6 5 11 10 11 6
0 10 -2 10 -4z m48 -13 c-8 -11 -7 -12 7 -7 13 5 16 4 11 -4 -11 -18 -33 -14
-39 7 -3 14 0 19 14 18 14 -1 15 -4 7 -14z m-1588 -48 c-9 -11 -9 -15 -1 -15
7 0 10 -4 6 -9 -3 -5 2 -16 10 -24 11 -12 12 -17 2 -20 -9 -4 -9 -8 2 -15 16
-12 2 -22 -19 -13 -19 8 -24 29 -10 46 7 9 6 16 -5 25 -20 16 -19 27 3 33 9 3
19 5 21 6 2 0 -2 -6 -9 -14z m93 -21 c-6 -17 -29 -18 -36 -1 -3 7 5 13 19 13
15 1 21 -3 17 -12z m24 -23 c2 -20 -26 -38 -36 -24 -4 4 -4 7 -2 6 2 -2 10 6
18 17 17 25 18 25 20 1z m108 9 c3 -5 1 -10 -4 -10 -6 0 -11 5 -11 10 0 6 2
10 4 10 3 0 8 -4 11 -10z m111 -46 c-2 -16 -24 -40 -30 -33 -2 2 -7 15 -11 28
-6 21 -5 23 14 18 12 -3 19 -1 15 4 -3 5 -15 9 -27 9 -18 0 -19 2 -7 10 17 11
49 -14 46 -36z m-190 -1 c-11 -11 -17 4 -9 23 7 18 8 18 11 1 2 -10 1 -21 -2
-24z m137 -12 c6 -24 -20 -36 -40 -19 -13 10 -12 13 7 20 13 5 18 13 14 19 -4
7 -3 9 3 6 6 -4 13 -15 16 -26z m-103 -10 c24 9 24 8 6 -6 -17 -13 -113 -19
-100 -6 2 2 -4 10 -14 17 -14 11 -8 11 33 0 32 -8 60 -10 75 -5z m50 -15 c0
-3 -4 -8 -10 -11 -5 -3 -10 -1 -10 4 0 6 5 11 10 11 6 0 10 -2 10 -4z m-89
-35 c7 11 9 11 9 1 0 -17 -29 -27 -42 -14 -6 6 -7 16 -3 22 6 9 10 8 18 -5 8
-14 11 -15 18 -4z m59 15 c0 -11 -19 -15 -25 -6 -3 5 1 10 9 10 9 0 16 -2 16
-4z"/>
<path d="M3785 2969 c-4 -6 -5 -12 -2 -15 2 -3 7 2 10 11 7 17 1 20 -8 4z"/>
</g>
</svg>
